<?xml version="1.0" encoding="UTF-8" standalone="no"?>
<svg id="svg2" xmlns:rdf="http://www.w3.org/1999/02/22-rdf-syntax-ns#" xmlns="http://www.w3.org/2000/svg" height="565pt" width="1021pt" version="1.1" xmlns:cc="http://creativecommons.org/ns#" xmlns:dc="http://purl.org/dc/elements/1.1/" viewBox="0 0 1021 565">
<path id="path4" d="m903.42 0h6.18c6.61 2.01 5.11 12.9 13.2 12.15 8.47 1.49 1.4 15.74 11.15 16.99 5.09 17.71 6.37 36.74 8.75 55.05 14.47 1.19 15.2 17.55 14.78 29 1.77 50.62 11.73 100.49 15.31 150.94 15 66.59 23.17 135.17 38.21 201.82 0.8 3.61-3.2 4.18-5.5 5.62-1.3 4.42 6.4 9.7 1.9 13.68-8.67 5.59 4.9 16.58-0.5 23.69-79.92 4.06-162.57 3.29-242.13 9.08 79.95 0.03 160.03-5.12 239.93 0.06-3.4-4.78 0-7.7 5-7.69 6.8 10.29 7.1 23.1 11.3 34.41v10.02c0 5.46-2.6 9.61-8.1 10.18h-3.7c-134.99-10.77-270.54-10.1-405.2-15.94-20.62-0.06-44.18-8.2-62.31 4.96-14.86 2.2-29.01-5.95-41.05-13.77-43.95-7.14-88.98-0.11-133.16-5.68-49.85-5.87-100.56 1.84-150.09-7-57.19-7.47-114.89 0.14-172.21-5.79-15.11-1.45-34.07 1.34-45.18-11.43v-13.7c5.88-34.25 5.81-69.06 7.86-103.62-2.68-42.19 3.12-84.27 1.74-126.46 4.67-40.31-2.43-80.85 4.06-120.97 2.89-43.65-2.54-88.22 7.54-131.08 7.6-5.48 17.55 3.09 25.84 3.38 3.25 3.91-6.55 3.07-5.53 7.91-8.97 156.04-19.79 312.16-20.48 468.66-1.79 6.19 3.71 12.52 10.14 10.17 14.97-1.46 30.12-0.28 45-1.76-16.28-1.49-33.87-2.54-50.7-3.45 1.58 2.36 5.94 1.77 6.31 4.82-14.46 0.2-7.61-19.99-8.03-28.37 6.95-149.61 18.36-299.25 25.12-448.79 0.25-8.05 14.77-10.37 19.24-5.22-5.03 2.9-14.92-3.72-16.59 4.77-6.95 148.88-18.17 297.67-25.37 446.58 0.96 7.41-6.08 19.23 2.76 24.02-0.84-3.88-1.73-7.81-1.27-11.82 12.85-149.23 22.83-298.64 39.21-447.54 2.08-10.87 1.62-28.76 18.56-24.61 72.64 1.81 145.41 4.97 218.02 0.15 31.69 0.11 64.16-3.69 95.08 5.11 39.19 6.55 80.04 29.98 91.67 70.13 20.7-45.92 74.05-69.47 121.78-79.76 58.63-4.26 117.44 6.51 176.05 0.61 38.43-2.85 77.73-0.44 115.41-9.51m0.15 3.53c-24.02 6.74-49.15 5.39-73.81 7.15-58.74 6.5-117.63 3.63-176.4 1-56.98-2.79-118.33 18.44-153.01 65.63-11.19 14.6-6.42 34-4.16 50.49 3.9 48.56 0.53 97.91 7.72 146.37-0.45 17.04-2.2 34.35 2.07 51.12 1.46 66.55 1.36 133.46 11.16 199.42 2.03 6.54 4.24-6.25 9.35-2.32 44.23-10.82 89.35-15.8 134.56-20.29 111.07-19.55 224.6-13.9 335.77-32.23 4.08-0.78 10.28-1.3 10.18-6.78-7.32-13.02-5.7-28.95-8.79-43.26-12.06-44.87-12.82-92.12-27.74-136.33-17.83-90.82-36.08-181.68-56.57-273.15 0.06-5.24-5.31-9.47-10.33-6.82m15.58 11.59c7.37 41.57 16.95 83.14 26.84 124.1-5.23-33.81-14.35-66.92-17.06-101.15-4.49-5.86 0.13-23.17-9.78-22.95m-828.7 1.51c-6.71 0.92-16.6-2.24-18.9 6.27-12.7 88.55-17.48 178.16-20.7 267.39-4.97 59.56-10.16 119.26-14.84 178.86 0.25 6.4-2.31 19.98 7.36 20.74 32.25-1.44 64.6 1.78 96.87 0.56 92.94-11.31 186.74-10.71 280.12-5.81 32.03 3.82 64.66 13.71 90.5 33.56-8.13-110.59-9.28-221.57-15.9-332.22-3.54-43.11 4.96-94.9-27.87-129.07-37.68-38.23-95.47-42.86-146.04-40.53-76.8 4.55-153.77 1.93-230.6 0.25m-55.02 3.45c-5.39 33.47-5.14 67.78-5.58 101.65-7.32 79.08-11.17 158.19-9.24 237.68-0.72 48.86-6.53 98.01-3.54 146.65 12.14 7.6 29.18 5.91 43.02 5.13 23.78 2.42 49.71-1.78 71.84-2.11-35.49 1.61-70.79-2.41-106.15-1.36-6.84-1.67-8.58-10.25-8.31-16.36 3.35-77.83 3.37-155.86 8.18-233.69 6.61-79.18 6.72-158.79 15.16-237.77-1.34 0.05-4.03 0.14-5.38 0.18m894.7 11.01c6.36 33.3 7.15 69.51 17.92 100.98-7-33.4-8.89-67.5-15.3-100.97-0.65 0-1.96-0.01-2.62-0.01m-903.74 57.41c-2.79 21.13-2.03 44.11-1.53 64.49 1.89-21.44 3.75-43.05 1.53-64.49m917.58 2.37c1.01 22.17 6.9 45.51 10.27 67.96 0.5-14.83-4.88-33.74-3.92-50.18-1.85-5.37 2.39-17.34-6.35-17.78m15.96 117.39c0.42 13.28 3.87 26.32 6.96 39.12-2.07-12.57-2.43-28.67-6.96-39.12m-910.73 51c-6.84 70.82-11.74 144.77-18.28 216.74-1.54 8.19-2.7 23.5 10.4 21.72 93.19 7.24 186.87 0.53 280.18 5.65 59.67 1.88 126.39-9.92 180.32 21.85-0.22 7.18 10.26 10.46 14.14 4.64-1.93-2.68-4.18-6.83-5.87-2.04-20.48-23.14-51.95-32.16-81.65-35.56-79.57-5.88-160.5-3.42-239.58 1.66 60.24 0.04 120.58-0.06 180.78-1.7 41.42 2.9 92.18-2.1 125.49 26.69-57.79-30.69-126.05-22.84-189.12-21.85-88.26-1.19-176.73 5.03-264.84-0.96-10.76 1.43-7.51-11.88-8.31-18.04 4.37-65.21 11.55-130.21 15.76-195.46 1.45-7.5 0.96-18.07 0.58-23.34m951.2 214.08c-110.1 17.52-222.29 12.82-332.46 30.59-32.96 5.35-69.63 5.35-99.77 14.89 86.65-9.73 173.5-17.52 260.46-24.14 58.78-3.57 117.84-4.57 176.37-11.89-1.1-2.83 1.1-11.53-4.6-9.45m-711.81 11.26c-83.32-0.33-166.93 13.47-249.87 8.15 33.95 3.9 68.54 4.08 102.65 1.62 86.11-7.44 173.07-10.09 259.58-6.3 9 0.5 21.49 3.27 28.99 0.98-46.75-6.19-94.3-4.96-141.35-4.45m704.96 2.79c-145.25 10.33-291.7 14.49-435.66 37.85 46.19-0.33 93.21-10.59 140.05-7.17 102.11-5.59 204.37-8.68 306.56-11.56-0.1-6.46 0.6-23.85-10.95-19.12m-871.02 16.25c-19.84 0.84-39.87 1.08-59.59 2.42 73.94 2.08 150.75 3.51 225.88 3.95 47.48 3.05 95.14 4.26 142.63 0.97-54.12-8-110.01-2.17-164.78-5.74-48.01-1.8-96.13-1.45-144.14-1.6m303.4 2.29c1.1 4.28 10.02 2.35 12.01 1.31-3.97-0.72-7.98-1.17-12.01-1.31m-225.38 5.36c4.41 3.63 16.38-2.06 0 0m12.4 0.66c38.45 2.49 82.68 5.13 121.2 3.19-39.85-4.18-80.88-2.9-121.2-3.19m667.06 6.71c-109.93 4-223.02-2.58-330.93 15.35 42.73 0.99 85.08-7.08 127.82-5.96 109.62-4.52 219.58-2.05 328.8 8.97 2.5-5.11-0.1-12.35-2.1-16.86-41.16-0.88-82.39-3.36-123.59-1.5m-643.39 1.77c4.98 2.28 17.04 1.68 25.35 2.65-6.75-3.97-17.41-2.91-25.35-2.65m110.38 0.57c8.92 3.47 14.27-1.73 0 0m197.46 0.41c-6.71 3.23-25.06 0.53-20.76 11.27 4.31-7.52 15.89-8.46 24.1-10.92 0.32-1.82-2.39-0.16-3.34-0.35m14.18 0.12c-3.82 0.91-9.23 0.52-11.72 3.51 6.62-0.75 29.93-5.29 11.72-3.51m-114.14 0.55c6.27 5.32 13.2-2.31 0 0m40.49 5.85c5.66 3.94 13.66-2.02 0 0m74.71 0.5c-2.92 0.41-5.78 0.88-8.56 1.81 1.98 2.55 21.75-3.66 8.56-1.81m178.66 0.11c-64.62 1.31-129.08 5.66-193.51 9.09-4.05-0.04-6.27 4.5-5.43 8.03 6.33 2.34 0.56-10.6 9.02-7.4 150.05 3.13 300.4 4.59 450.17 13.78 7.69 2.26 8.39-4.31 7.49-9.78 5.9-1.35 0.3 19.26 6.9 10.67 2.6-5.07-3.2-26.92-5.2-12.94-89.41-10.85-179.54-10.56-269.44-11.45m-206.6 0.77c-4.41-0.86-8.86 12.98-4.12 6.41 2.45-7.99 23.57-5.46 4.12-6.41m2.78 5.1c-2.01 1.94-3.61 4.64-3.5 7.51 2.13 3.9 6.49-9.1 3.5-7.51m-25.24 2.68c1.94 4.44 8.18-1.21 0 0m93.68 5.88c2.9 3.43 12.29-0.08 17.04 1.06-2.91-3.44-12.32 0.05-17.04-1.06m-82.99 0.94c2.36 3.95 8.67 3.24 12.9 4.14-2.39-3.08-8.8-2.78-12.9-4.14m271.63 2.97c58.88 6.08 121.83 5.17 182.26 9.23 1.12 2.3 11.34-0.25 5.15-1.3-62.44-2.76-124.99-4.95-187.41-7.93z"/>
</svg>
